<svg id="Слой_1" data-name="Слой 1" xmlns="http://www.w3.org/2000/svg" viewBox="0 0 800 450"><defs><style>.cls-1{fill:#adadad;}.cls-2{fill:#ec1c24;fill-rule:evenodd;}</style></defs><title>img-dummy</title><rect class="cls-1" x="-9" y="-10.25" width="823" height="467"/><path class="cls-2" d="M379.61,158.46v-.7c0-16.2,32.2-15.8,32.2.4a58.93,58.93,0,0,1,27.3-6.7c32.6,0,60.9,26.7,59.1,59.1s-21.7,45.4-40.5,53c-18.8,8.8-37.6-18.8-19.9-25.1,12.5-1.9,28.3-11.5,28.6-27.9s-12.2-27.3-27.3-27.3a27.24,27.24,0,0,0-27.2,25.9h0v86.4c0,11.4-32.1,11.6-32.1.1l-.1-.7c0-34.9,0-101.4-.1-136.5"/><path class="cls-2" d="M329.71,165.06a28,28,0,1,1-28,28,28,28,0,0,1,28-28"/></svg>