<?xml version="1.0" encoding="utf-8"?>
<!-- Generator: Adobe Illustrator 23.1.1, SVG Export Plug-In . SVG Version: 6.00 Build 0)  -->
<svg version="1.1" id="Слой_1" xmlns="http://www.w3.org/2000/svg" xmlns:xlink="http://www.w3.org/1999/xlink" x="0px" y="0px"
	 viewBox="0 0 1000 158.5" style="enable-background:new 0 0 1000 158.5;" xml:space="preserve">
<style type="text/css">
	.st0{fill:#FFFFFF;}
	.st1{fill:#EC1C24;}
	.st2{fill-rule:evenodd;clip-rule:evenodd;fill:#EC1C24;}
</style>
<g>
	<g>
		<path class="st0" d="M423.2,117.3c-0.3-1-0.5-2.3-0.8-3.8c-0.3-1.5-0.4-3.3-0.5-5.6c-0.2,2-0.5,3.8-0.8,5.5
			c-0.3,1.7-0.7,3.5-1.1,5.2l-2.8,11.4h9L423.2,117.3z M433.4,157.2l-3.6-13.4h-16.5l-3.8,13.4h-18.8l22.4-69.8h18.6l21.1,69.8
			H433.4z M350,113.1h3.9c1.1,0,2.2-0.1,3.2-0.3c1.2-0.2,2.2-0.8,3-1.7c0.8-0.7,1.4-1.6,1.7-2.7c0.3-1,0.6-2,0.8-3l1.7-7.2
			c0.4-1.6,0.9-3.1,1.6-4.5c0.7-1.4,1.7-2.6,3-3.4c1.5-1.1,3.2-1.9,5-2.4c1.7-0.4,3.5-0.8,5.2-1l4.9-0.5l4.1,11.3l-4,1.1
			c-0.5,0.1-1,0.3-1.5,0.5c-0.5,0.2-1,0.4-1.4,0.8c-0.4,0.4-0.7,0.8-1,1.3c-0.5,0.8-0.8,1.6-1.1,2.5l-1.9,6.2c-0.5,1.7-1.2,3.4-2,5
			c-0.4,0.8-0.9,1.5-1.4,2.2c-0.8,0.8-1.6,1.4-2.6,1.8c-0.9,0.5-1.9,0.8-2.9,1.1v0.4c2.3,0.7,4.4,2,5.9,3.9c0.7,0.9,1.3,1.9,1.8,2.9
			c0.5,1,0.9,2,1.2,3l3.4,10c0.4,1.6,1.4,3.1,2.7,4.1c0.6,0.4,1.2,0.7,1.8,1l2,0.6l2.8,0.9l-3.6,11.6l-5.3-0.4
			c-2.4-0.1-4.9-0.5-7.2-1c-2.5-0.5-4.8-1.9-6.5-3.9c-0.8-1-1.5-2.1-1.9-3.3c-0.7-1.8-1.3-3.6-1.7-5.5L362,136
			c-0.3-1.1-0.6-2.2-1-3.4c-0.4-1.1-1-2.1-1.9-2.8c-0.9-0.8-1.9-1.3-3-1.6c-1-0.2-2-0.3-3.1-0.4h-3v29.3h-17.9V87.4H350V113.1z
			 M301.2,157.2v-28.9c0-0.8,0-1.7,0-2.8c0.1-1.1,0.1-2.2,0.2-3.4l0.2-3.6c0.1-1.2,0.1-2.3,0.2-3.3c-0.8,2.3-1.6,4.3-2.2,6.1
			c-0.7,1.8-1.5,3.7-2.5,5.8l-12.8,30.1h-18.9V87.4h17.9v28.9c0,0.8,0,1.8,0,2.8s-0.1,2.3-0.1,3.5s-0.1,2.4-0.2,3.6
			c-0.1,1.2-0.1,2.2-0.2,3.2c0.5-1.5,1.2-3.3,2-5.3c0.8-2,1.7-4.2,2.7-6.6l12.8-30.1h18.9v69.8H301.2z M229.6,118.2
			c0.7,0,1.7,0,2.8-0.1c1.1-0.1,2.1-0.5,3-1.2c0.6-0.4,1.1-1,1.4-1.7c0.3-0.6,0.5-1.3,0.7-2c0.2-0.7,0.3-1.4,0.3-2
			c0-0.7,0-1.2,0-1.6c0-1-0.1-1.9-0.2-2.9c-0.1-0.9-0.5-1.8-1.1-2.6c-0.7-0.9-1.7-1.5-2.9-1.7c-1-0.2-2-0.3-3-0.3h-6.2v16.1
			L229.6,118.2z M229.2,87.5c1.5,0,3.2,0,4.9,0.1c1.8,0.1,3.6,0.3,5.4,0.7c1.9,0.3,3.7,0.8,5.5,1.5c1.8,0.7,3.4,1.6,4.9,2.7
			c2.7,1.9,4.8,4.6,5.9,7.8c0.9,2.9,1.4,5.9,1.4,8.9c0,1.4-0.1,2.8-0.3,4.2c-0.2,1.6-0.6,3.2-1.1,4.8c-0.6,1.7-1.4,3.3-2.4,4.8
			c-1.1,1.6-2.5,3.1-4.1,4.2c-1.4,1.1-3,2-4.6,2.7c-1.7,0.7-3.4,1.2-5.1,1.6c-1.7,0.4-3.4,0.6-5.1,0.8c-1.7,0.1-3.2,0.2-4.6,0.2
			h-5.6v24.8h-17.9V87.4L229.2,87.5z M163.6,142.3h6.1c4.4,0,6.6-2.3,6.6-6.9c0.1-1.9-0.4-3.8-1.4-5.5c-1-1.4-2.6-2.1-5-2.1h-6.3
			V142.3z M145.7,157.2V87.4h46.1l-1.3,14.7h-26.9v11.6h6.4c3.4,0,6.8,0.2,10.2,0.6c3.4,0.4,6.7,1.7,9.4,3.9
			c1.5,1.1,2.7,2.5,3.7,4.1c0.9,1.4,1.6,2.9,2.1,4.4c0.5,1.4,0.8,2.8,0.9,4.2c0.1,1.4,0.2,2.5,0.2,3.4c0,2.1-0.2,4.1-0.6,6.1
			c-0.3,1.6-0.8,3.2-1.4,4.8c-0.5,1.3-1.1,2.5-1.9,3.6c-0.7,0.9-1.4,1.8-2.2,2.6c-1.2,1.3-2.6,2.3-4.2,3.1c-1.4,0.7-2.8,1.3-4.4,1.6
			c-1.4,0.4-2.8,0.6-4.2,0.7c-1.4,0.1-2.6,0.1-3.6,0.1H145.7z M110.3,117.3c-0.3-1-0.5-2.3-0.8-3.8c-0.3-1.5-0.4-3.3-0.5-5.6
			c-0.2,2-0.5,3.8-0.8,5.5c-0.3,1.7-0.7,3.4-1.1,5.2l-2.8,11.4h9L110.3,117.3z M120.5,157.2l-3.6-13.4h-16.5l-3.8,13.4H77.8
			l22.4-69.8h18.6l21.1,69.8H120.5z M45.5,132.9h1.8c1.2,0,2.5-0.1,3.7-0.4c1.3-0.2,2.6-0.8,3.6-1.8c0.7-0.7,1.3-1.5,1.7-2.4
			c0.4-0.9,0.7-1.9,0.8-3c0.2-1,0.3-2,0.3-3.1c0-1,0-1.9,0-2.7c0-0.8,0-1.7,0-2.7c0-1-0.1-2-0.3-3c-0.2-1-0.4-1.9-0.8-2.8
			c-0.4-0.9-1-1.7-1.7-2.3c-1-0.9-2.3-1.5-3.6-1.6c-1.1-0.2-2.3-0.2-3.5-0.2h-2L45.5,132.9z M28,107c-1.2,0-2.3,0.1-3.5,0.2
			c-1.4,0.2-2.6,0.7-3.7,1.7c-0.7,0.7-1.3,1.5-1.7,2.3c-0.4,0.9-0.7,1.9-0.9,2.8c-0.2,1-0.3,2-0.3,3c0,1,0,1.8,0,2.7s0,1.7,0,2.7
			c0,1,0.1,2,0.3,3.1c0.2,1,0.4,2,0.9,3c0.4,0.9,1,1.7,1.7,2.4c1,0.9,2.3,1.5,3.6,1.8c1.2,0.2,2.5,0.3,3.7,0.4H30v-26H28z
			 M28.8,157.2v-10.7h-3.4c-3.5,0.1-7-0.3-10.3-1.3c-2.3-0.7-4.4-1.7-6.4-3.1c-1.8-1.3-3.3-3-4.5-4.9c-1.1-1.8-2-3.8-2.6-5.9
			c-0.6-2-1-4-1.2-6.1c-0.2-2-0.3-3.8-0.3-5.4c0-1.3,0.1-2.8,0.2-4.6c0.1-1.9,0.4-3.8,0.9-5.6c0.5-2,1.1-3.9,2-5.8
			c0.9-1.9,2.1-3.6,3.7-5c2.1-1.7,4.5-3,7.1-3.9c3.8-1.2,7.7-1.7,11.7-1.6h3.4v-9.8h17.9v9.7h3.4c4-0.1,7.9,0.4,11.7,1.6
			c2.6,0.8,5,2.2,7,3.9c1.6,1.4,2.8,3.1,3.7,5c0.9,1.8,1.5,3.8,2,5.8c0.4,1.9,0.7,3.7,0.8,5.6c0.1,1.8,0.2,3.3,0.2,4.6
			c0,1.6-0.1,3.4-0.3,5.4c-0.2,2-0.6,4.1-1.2,6c-0.6,2.1-1.5,4-2.7,5.9c-1.2,1.9-2.7,3.6-4.5,4.9c-2,1.4-4.1,2.4-6.4,3.1
			c-3.3,1-6.8,1.4-10.3,1.3h-3.4v10.7L28.8,157.2z"/>
		<path class="st1" d="M941.6,142.3h6.1c0.7,0,1.5-0.1,2.2-0.2c1-0.2,1.9-0.8,2.6-1.5c0.5-0.6,0.9-1.3,1.2-2.1
			c0.4-1.1,0.6-2.2,0.6-3.4c0-1.2-0.1-2.4-0.5-3.5c-0.2-0.8-0.6-1.5-1-2.1c-0.6-0.8-1.5-1.4-2.4-1.7c-0.8-0.3-1.7-0.4-2.5-0.4h-6.3
			L941.6,142.3z M1000,87.4v69.8h-17.9V87.4H1000z M948.2,113.1c1.3,0,2.8,0,4.5,0.1c1.7,0.1,3.5,0.3,5.2,0.6
			c1.8,0.3,3.6,0.8,5.3,1.4c1.7,0.6,3.3,1.5,4.7,2.6c1.5,1.1,2.7,2.5,3.7,4.1c0.9,1.4,1.6,3,2.1,4.6c0.4,1.4,0.8,2.8,0.9,4.3
			c0.1,1.1,0.2,2.3,0.2,3.4c0,2.1-0.2,4.1-0.5,6.2c-0.3,1.7-0.8,3.3-1.4,4.9c-0.5,1.3-1.2,2.5-2,3.7c-0.7,0.9-1.4,1.8-2.2,2.7
			c-1.2,1.3-2.6,2.3-4.2,3.1c-1.4,0.7-2.8,1.3-4.4,1.7c-1.4,0.4-2.7,0.6-4.1,0.7c-1.3,0.1-2.6,0.1-3.7,0.1h-28V87.4H942v25.6H948.2z
			 M894.7,157.2l-1.7-30.1c-0.1-0.9-0.1-1.5-0.2-1.9c0-0.4-0.1-0.9-0.1-1.6c0-0.7-0.1-1.6-0.1-2.8c0-1.2-0.1-3.1-0.2-5.7h-0.1
			c-0.5,2.4-0.8,4.1-1,5.1c-0.2,1-0.3,1.7-0.4,2.2c-0.1,0.5-0.2,0.9-0.3,1.3c-0.1,0.4-0.4,1.3-0.7,2.6l-8.5,31h-15.2l-7.4-30.2
			c-0.2-0.9-0.4-1.7-0.5-2.3c-0.2-0.7-0.3-1.5-0.5-2.3c-0.2-0.9-0.3-1.9-0.5-3c-0.2-1.1-0.4-2.6-0.7-4.3h-0.1c0.1,2.3,0.1,4.3,0,6.2
			c-0.1,1.8-0.2,3.9-0.3,6.2l-1.4,29.8h-18l6.8-69.8h21.9l6.8,29.6c0.3,1.5,0.6,2.8,0.8,3.9c0.2,1.1,0.4,2.1,0.6,2.9
			c0.2,0.8,0.3,1.6,0.4,2.3c0.1,0.7,0.3,1.4,0.4,2.1h0.1c0.4-2.1,0.7-3.7,1-4.8c0.2-1.1,0.4-2.1,0.6-2.8c0.2-0.8,0.3-1.5,0.5-2.1
			c0.2-0.6,0.4-1.5,0.6-2.5l7.1-28.6h21.2l6.4,69.8L894.7,157.2z M802.4,117.3c-0.3-1-0.5-2.3-0.8-3.8s-0.4-3.3-0.5-5.6
			c-0.2,1.8-0.4,3.7-0.8,5.5c-0.3,1.7-0.7,3.5-1.1,5.2l-2.8,11.4h9L802.4,117.3z M812.6,157.2l-3.6-13.4h-16.5l-3.8,13.4h-18.8
			l22.4-69.8h18.6l21.1,69.8H812.6z M746.1,157.2v-55.7h-10.9l-0.3,8.4c0,0.9-0.1,2.3-0.1,4.3c-0.1,2-0.2,4.3-0.4,7
			c-0.2,2.7-0.4,5.3-0.7,8.2c-0.3,2.9-0.6,5.6-0.9,8.2c-0.1,1.1-0.3,2.3-0.5,3.5c-0.2,1.3-0.6,2.5-1,3.7c-0.4,1.2-0.9,2.5-1.5,3.6
			c-0.6,1.2-1.4,2.3-2.4,3.3c-1,1-2.1,1.9-3.4,2.6c-1.2,0.6-2.4,1.2-3.7,1.6c-1.2,0.4-2.4,0.8-3.6,1c-1.2,0.2-2.3,0.4-3.3,0.6
			l-5.3,0.8l-3.7-12.5l2.6-0.7c0.8-0.2,1.7-0.5,2.5-0.9c0.9-0.3,1.7-0.8,2.4-1.2c0.9-0.6,1.7-1.4,2.4-2.2c0.5-0.8,0.9-1.6,1.2-2.4
			c0.3-0.9,0.5-1.8,0.8-2.8c0.2-1,0.5-2.1,0.6-3.1c0.2-1,0.4-2,0.5-2.9c0.1-0.8,0.2-1.6,0.2-2.1c0.3-2.1,0.5-4.4,0.7-6.8
			c0.2-2.4,0.3-4.8,0.5-7.2c0.2-2.4,0.3-4.7,0.3-7c0.1-2.3,0.1-4.4,0.2-6.4l0.3-12.7H764v69.7H746.1z M663.6,113.1h3.9
			c1.1,0,2.2-0.1,3.2-0.3c1.1-0.2,2.2-0.8,3-1.7c0.8-0.7,1.4-1.6,1.7-2.7c0.3-1,0.6-2,0.8-3l1.8-7.2c0.3-1.6,0.9-3.1,1.5-4.6
			c0.7-1.4,1.7-2.6,3-3.4c1.5-1.1,3.2-1.9,5-2.4c1.7-0.4,3.5-0.8,5.2-1l4.9-0.5l4.1,11.3l-4,1.1c-0.5,0.1-1,0.3-1.5,0.5
			c-0.5,0.2-1,0.4-1.4,0.8c-0.4,0.4-0.7,0.8-1.1,1.3c-0.4,0.8-0.8,1.6-1,2.5l-1.9,6.2c-0.5,1.7-1.2,3.4-2,5
			c-0.4,0.8-0.9,1.5-1.5,2.2c-0.8,0.8-1.6,1.4-2.6,1.8c-0.9,0.5-1.9,0.8-2.9,1.1v0.4c2.3,0.7,4.4,2,5.9,3.9c0.7,0.9,1.3,1.9,1.8,2.9
			c0.5,1,0.9,2,1.2,3l3.4,10c0.4,1.6,1.4,3.1,2.7,4.1c0.6,0.4,1.2,0.7,1.8,1l2,0.6l2.8,0.9l-3.6,11.6l-5.3-0.4
			c-2.4-0.1-4.9-0.5-7.3-1c-2.5-0.5-4.8-1.9-6.5-3.9c-0.8-1-1.5-2.1-2-3.3c-0.7-1.8-1.3-3.6-1.7-5.5l-1.8-8.4
			c-0.3-1.1-0.6-2.2-1-3.4c-0.4-1.1-1-2.1-1.9-2.8c-0.9-0.8-1.9-1.3-3-1.6c-1-0.2-2-0.3-3-0.4h-2.9v29.3h-18.1V87.4h17.9V113.1z
			 M594.8,157.2V87.4h40.5l-1.3,14.7h-21.3v11.7h17.4v14.2h-17.4v14.2h23.9v14.9H594.8z"/>
		<path class="st2" d="M471.7,12.6v-0.7c0-16.2,32.2-15.8,32.2,0.4c8.4-4.4,17.8-6.7,27.3-6.7c32.6,0,60.9,26.7,59.1,59.1
			c-1.8,32.3-21.7,45.4-40.5,53c-18.8,8.8-37.6-18.8-19.9-25.1c12.5-1.9,28.3-11.5,28.6-27.9c0.4-16.4-12.2-27.3-27.3-27.3
			c-14.5,0-26.5,11.4-27.2,25.9l0,0v86.4c0,11.4-32.1,11.6-32.1,0.1l-0.1-0.7C471.8,114.2,471.8,47.7,471.7,12.6"/>
		<path class="st2" d="M421.8,19.2c15.5,0,28,12.5,28,28s-12.5,28-28,28s-28-12.5-28-28S406.4,19.2,421.8,19.2"/>
	</g>
</g>
</svg>
