<svg xmlns="http://www.w3.org/2000/svg" viewBox="0 0 1000 158.5"><defs><style>.cls-1,.cls-2{fill:#ec1c24;}.cls-2{fill-rule:evenodd;}</style></defs><title>logo</title><g id="Слой_2" data-name="Слой 2"><g id="Слой_1-2" data-name="Слой 1"><path d="M423.17,117.27c-.27-1-.53-2.26-.8-3.8s-.37-3.27-.5-5.6q-.3,3-.8,5.5c-.34,1.74-.7,3.47-1.1,5.2L417.17,130h9Zm10.21,39.93-3.61-13.41H413.26l-3.8,13.41H390.65l22.41-69.75h18.61l21.12,69.75ZM350,113.07h3.91a18.2,18.2,0,0,0,3.25-.3,5.77,5.77,0,0,0,3.05-1.7,6,6,0,0,0,1.7-2.65c.33-1,.6-2,.8-3l1.7-7.21A21.62,21.62,0,0,1,366,93.71a9.67,9.67,0,0,1,2.95-3.45,13.89,13.89,0,0,1,5-2.36,43.32,43.32,0,0,1,5.25-1l4.9-.5,4.11,11.31-4,1.1a14.72,14.72,0,0,0-1.5.45,6.18,6.18,0,0,0-1.4.75,10.5,10.5,0,0,0-1.05,1.3,9.41,9.41,0,0,0-1.05,2.5l-1.9,6.21a30,30,0,0,1-1.95,5,10,10,0,0,1-1.45,2.15,9.86,9.86,0,0,1-2.6,1.85,12.72,12.72,0,0,1-2.91,1.06v.4a12.31,12.31,0,0,1,5.91,3.9,15.11,15.11,0,0,1,1.8,2.9,26.79,26.79,0,0,1,1.2,3l3.4,10a7.31,7.31,0,0,0,2.7,4.1,8.1,8.1,0,0,0,1.81,1l2,.6,2.8.9-3.6,11.61-5.31-.4a45.59,45.59,0,0,1-7.25-1,11.71,11.71,0,0,1-6.46-3.85,13.09,13.09,0,0,1-1.95-3.31,35,35,0,0,1-1.65-5.5l-1.8-8.4c-.27-1.07-.6-2.19-1-3.36a6.38,6.38,0,0,0-1.9-2.85,6.77,6.77,0,0,0-3-1.55,15,15,0,0,0-3.06-.35H350V157.2H332.11V87.45H350ZM301.19,157.2V128.28c0-.8,0-1.73.05-2.8s.09-2.2.15-3.4l.2-3.61c.07-1.2.14-2.3.2-3.3q-1.2,3.4-2.25,6.06t-2.45,5.85L284.28,157.2H265.37V87.45h17.91v28.92c0,.8,0,1.75,0,2.85s-.08,2.26-.15,3.46-.13,2.38-.2,3.55-.13,2.25-.2,3.25q.79-2.29,2-5.3t2.7-6.61l12.81-30.12H319.1V157.2Zm-71.54-39c.73,0,1.66,0,2.8-.15a5.62,5.62,0,0,0,3-1.15,4.37,4.37,0,0,0,1.35-1.7,11.81,11.81,0,0,0,.7-2,10.69,10.69,0,0,0,.3-2.05c0-.67,0-1.2,0-1.6a21.23,21.23,0,0,0-.2-2.85,5,5,0,0,0-1.1-2.56,4.47,4.47,0,0,0-2.85-1.7,18.47,18.47,0,0,0-3-.3h-6.21v16.11Zm-.4-30.72q2.3,0,4.95.15a46.4,46.4,0,0,1,5.45.65,31.1,31.1,0,0,1,5.46,1.51,20.22,20.22,0,0,1,4.95,2.7,15.9,15.9,0,0,1,5.9,7.8,29.09,29.09,0,0,1,1.4,8.91,33.85,33.85,0,0,1-.3,4.25,24.48,24.48,0,0,1-1.1,4.75,20,20,0,0,1-2.35,4.76,17.43,17.43,0,0,1-4.05,4.25,17.68,17.68,0,0,1-4.65,2.7,32.41,32.41,0,0,1-5.11,1.55,37.35,37.35,0,0,1-5.1.75c-1.7.14-3.25.2-4.65.2h-5.61V157.2H206.53V87.45ZM163.6,142.29h6.11q6.6,0,6.6-6.9a9.55,9.55,0,0,0-1.45-5.46q-1.46-2.15-5-2.15H163.6ZM145.69,157.2V87.45h46.13l-1.3,14.71H163.6v11.61H170a88.46,88.46,0,0,1,10.25.6,18.32,18.32,0,0,1,9.36,3.9,15.85,15.85,0,0,1,3.7,4.06,19.21,19.21,0,0,1,2.1,4.45,20.21,20.21,0,0,1,.9,4.25q.21,2.06.21,3.45a30.5,30.5,0,0,1-.56,6.11,26.57,26.57,0,0,1-1.4,4.8,16,16,0,0,1-1.95,3.6,23.17,23.17,0,0,1-2.2,2.61,16.37,16.37,0,0,1-4.2,3.1,22.42,22.42,0,0,1-4.35,1.65,24.82,24.82,0,0,1-4.21.7c-1.36.1-2.58.15-3.65.15Zm-35.42-39.93c-.27-1-.53-2.26-.8-3.8s-.37-3.27-.5-5.6q-.3,3-.8,5.5t-1.1,5.2L104.27,130h9Zm10.21,39.93-3.61-13.41H100.36l-3.8,13.41H77.75l22.41-69.75h18.62l21.11,69.75ZM45.53,132.88h1.8a20.92,20.92,0,0,0,3.7-.35,7.16,7.16,0,0,0,3.6-1.75,6.85,6.85,0,0,0,1.71-2.4,12.68,12.68,0,0,0,.85-2.95,27.12,27.12,0,0,0,.3-3.05c0-1,0-1.9,0-2.71s0-1.68,0-2.65a25.43,25.43,0,0,0-.3-3,11.89,11.89,0,0,0-.85-2.85,6.94,6.94,0,0,0-1.71-2.35A6.54,6.54,0,0,0,51,107.22a28.56,28.56,0,0,0-3.45-.25h-2ZM28,107a28.43,28.43,0,0,0-3.45.25,6.6,6.6,0,0,0-3.66,1.65,7,7,0,0,0-1.7,2.35,11.89,11.89,0,0,0-.85,2.85,21.69,21.69,0,0,0-.3,3c0,1,0,1.85,0,2.65s0,1.71,0,2.71a23.14,23.14,0,0,0,.3,3.05,12.68,12.68,0,0,0,.85,2.95,7,7,0,0,0,1.7,2.4,7.23,7.23,0,0,0,3.61,1.75,20.83,20.83,0,0,0,3.7.35H30V107Zm.8,50.23V146.49h-3.4a33.94,33.94,0,0,1-10.31-1.3,22.06,22.06,0,0,1-6.4-3.1,17.57,17.57,0,0,1-4.51-4.9,26.33,26.33,0,0,1-2.65-5.86A30.72,30.72,0,0,1,.3,125.28c-.2-2-.3-3.8-.3-5.41,0-1.26.05-2.8.15-4.6A32,32,0,0,1,1,109.62a30.25,30.25,0,0,1,2-5.76,15.9,15.9,0,0,1,3.7-5A21.79,21.79,0,0,1,13.76,95a35.09,35.09,0,0,1,11.66-1.6h3.4V83.65H46.73v9.71h3.4A35.09,35.09,0,0,1,61.79,95a21.63,21.63,0,0,1,7.05,3.9,15.93,15.93,0,0,1,3.71,5,31,31,0,0,1,2,5.76,32.94,32.94,0,0,1,.85,5.65c.1,1.8.15,3.34.15,4.6,0,1.61-.1,3.41-.3,5.41A30.72,30.72,0,0,1,74,131.33a26.79,26.79,0,0,1-2.65,5.86,17.57,17.57,0,0,1-4.51,4.9,22.06,22.06,0,0,1-6.4,3.1,34,34,0,0,1-10.31,1.3h-3.4V157.2Z"/><path class="cls-1" d="M941.56,142.29h6.11a13.07,13.07,0,0,0,2.2-.25,4.68,4.68,0,0,0,2.6-1.55,8,8,0,0,0,1.25-2.1,8.81,8.81,0,0,0,.55-3.41,11.06,11.06,0,0,0-.45-3.5,7.6,7.6,0,0,0-1.05-2.1,5.14,5.14,0,0,0-2.4-1.7,8.4,8.4,0,0,0-2.5-.4h-6.31ZM1000,87.45V157.2H982.09V87.45Zm-51.83,25.62c1.26,0,2.75,0,4.45.1a41,41,0,0,1,5.2.55,30.3,30.3,0,0,1,5.26,1.4,16.59,16.59,0,0,1,4.7,2.65,15.26,15.26,0,0,1,3.7,4.11,19.83,19.83,0,0,1,2.1,4.55,21,21,0,0,1,.9,4.3,34.52,34.52,0,0,1,.2,3.45,31.35,31.35,0,0,1-.55,6.16,26.45,26.45,0,0,1-1.4,4.85,17.17,17.17,0,0,1-2,3.65,20.76,20.76,0,0,1-2.2,2.66,17.55,17.55,0,0,1-4.2,3.15,20.76,20.76,0,0,1-4.36,1.7,24.49,24.49,0,0,1-4.15.7c-1.33.1-2.57.15-3.7.15h-28V87.45h17.91v25.62ZM894.73,157.2,893,127.08c-.06-.87-.11-1.5-.15-1.9s-.07-.94-.1-1.6-.06-1.62-.1-2.85-.08-3.12-.15-5.66h-.1c-.47,2.4-.78,4.09-.95,5.06s-.3,1.68-.4,2.15-.22.91-.35,1.35-.37,1.28-.7,2.55l-8.51,31h-15.2L858.91,127c-.2-.87-.38-1.65-.55-2.35s-.33-1.49-.5-2.35-.35-1.87-.55-3-.43-2.56-.7-4.3h-.1q.11,3.41,0,6.16t-.3,6.25l-1.4,29.82h-18l6.8-69.75h21.91l6.81,29.62c.33,1.47.62,2.76.85,3.86s.43,2.06.6,2.9.32,1.6.45,2.3.27,1.42.4,2.15h.1c.4-2.07.72-3.67.95-4.8s.43-2.09.6-2.85.33-1.47.5-2.11.39-1.45.65-2.45l7.11-28.62h21.21l6.4,69.75Zm-92.36-39.93c-.26-1-.53-2.26-.8-3.8s-.36-3.27-.5-5.6a55.29,55.29,0,0,1-.8,5.5q-.49,2.61-1.1,5.2L796.37,130h9Zm10.21,39.93L809,143.79H792.47l-3.8,13.41H769.85l22.42-69.75h18.61L832,157.2Zm-66.44,0V101.46H735.23l-.3,8.41q0,1.3-.15,4.35c-.1,2-.23,4.35-.4,7s-.38,5.33-.65,8.2-.57,5.6-.9,8.21c-.13,1.13-.32,2.31-.55,3.55a29.57,29.57,0,0,1-.95,3.7,21.13,21.13,0,0,1-1.55,3.6,16.09,16.09,0,0,1-2.35,3.25,13.11,13.11,0,0,1-3.36,2.61,26.72,26.72,0,0,1-3.7,1.65,27.26,27.26,0,0,1-3.65,1c-1.2.23-2.3.42-3.3.55l-5.31.8-3.7-12.51,2.6-.7a21.41,21.41,0,0,0,2.46-.85,15.61,15.61,0,0,0,2.45-1.25,8.49,8.49,0,0,0,2.35-2.25,13.15,13.15,0,0,0,1.25-2.45,27.26,27.26,0,0,0,.75-2.75c.23-1,.45-2.07.65-3.11s.35-2,.45-2.85.18-1.57.25-2.1c.27-2.13.48-4.39.65-6.75s.33-4.76.5-7.16.28-4.74.35-7,.13-4.41.2-6.41l.3-12.71h44.43V157.2Zm-82.55-44.13h3.9a18.11,18.11,0,0,0,3.25-.3,5.77,5.77,0,0,0,3-1.7,6,6,0,0,0,1.7-2.65,29.27,29.27,0,0,0,.8-3L678,98.26a20.54,20.54,0,0,1,1.55-4.55,9.47,9.47,0,0,1,3-3.45,13.77,13.77,0,0,1,5-2.36,43.32,43.32,0,0,1,5.25-1l4.91-.5,4.1,11.31-4,1.1a13.33,13.33,0,0,0-1.5.45,5.79,5.79,0,0,0-1.4.75,9.65,9.65,0,0,0-1.06,1.3,9.76,9.76,0,0,0-1,2.5l-1.9,6.21a30,30,0,0,1-1.95,5,10,10,0,0,1-1.45,2.15,9.7,9.7,0,0,1-2.6,1.85,12.82,12.82,0,0,1-2.9,1.06v.4a12.28,12.28,0,0,1,5.9,3.9,14.18,14.18,0,0,1,1.8,2.9,26.79,26.79,0,0,1,1.2,3l3.41,10a7.31,7.31,0,0,0,2.7,4.1,7.81,7.81,0,0,0,1.8,1l2,.6,2.8.9-3.6,11.61-5.3-.4a45.71,45.71,0,0,1-7.26-1,11.65,11.65,0,0,1-6.45-3.85,12.52,12.52,0,0,1-1.95-3.31,33.85,33.85,0,0,1-1.66-5.5l-1.8-8.4c-.26-1.07-.6-2.19-1-3.36a6.38,6.38,0,0,0-1.9-2.85,6.77,6.77,0,0,0-3.05-1.55,15,15,0,0,0-3-.35h-2.9V157.2H645.67V87.45h17.92ZM594.84,157.2V87.45h40.53l-1.3,14.71H612.75v11.71h17.41v14.21H612.75v14.21h23.92V157.2Z"/><path class="cls-2" d="M471.72,12.63l0-.68c0-16.23,32.16-15.78,32.16.45a58.84,58.84,0,0,1,27.26-6.66c32.62,0,60.87,26.74,59.07,59.07s-21.7,45.37-40.51,53C530.88,126.63,512.06,99,529.8,92.66c12.48-1.88,28.26-11.47,28.62-27.85s-12.21-27.26-27.26-27.26a27.27,27.27,0,0,0-27.23,25.88h0v86.44c0,11.42-32.08,11.55-32.08.13l-.05-.73c0-35.07,0-101.57,0-136.64"/><path class="cls-2" d="M421.84,19.21a28,28,0,1,1-28,28,28,28,0,0,1,28-28"/></g></g></svg>