<svg id="Слой_1" data-name="Слой 1" xmlns="http://www.w3.org/2000/svg" viewBox="0 0 113 32"><title>Безымянный-1</title><path d="M4.81,8.87a37.3,37.3,0,0,1,5-.33c2.28,0,6.37.3,6.37,3.42a3.14,3.14,0,0,1-2.78,3V15c2,.3,3.4,1.42,3.4,3.31,0,3.7-4.91,4.09-7.61,4.09-1.72,0-3.53-.14-4.34-.16ZM8.15,20.21c.56.05,1,.05,1.64.05,1.56,0,3.46-.39,3.46-2s-1.51-2-3.65-2H8.15Zm0-6H9.6c1.73,0,3.17-.47,3.17-1.78,0-1.09-.94-1.67-2.95-1.67a12.33,12.33,0,0,0-1.64.11Z"/><path d="M22.94,8.71V13a14.65,14.65,0,0,1,2.17-.16c3,0,6,1.22,6,4.65a4,4,0,0,1-1.67,3.39,9.78,9.78,0,0,1-5.82,1.54,37.49,37.49,0,0,1-4.13-.23V8.71Zm0,11.25a12.31,12.31,0,0,0,1.48.08c1.61,0,3.31-.64,3.31-2.45s-1.64-2.4-3.17-2.4a8.87,8.87,0,0,0-1.62.14ZM36.14,8.71V22.27H32.71V8.71Z"/><path d="M39.76,8.87a37.3,37.3,0,0,1,5-.33c2.28,0,6.38.3,6.38,3.42a3.15,3.15,0,0,1-2.79,3V15c2,.3,3.4,1.42,3.4,3.31,0,3.7-4.9,4.09-7.6,4.09-1.73,0-3.54-.14-4.35-.16ZM43.1,20.21c.56.05,1,.05,1.65.05,1.56,0,3.45-.39,3.45-2s-1.5-2-3.65-2H43.1Zm0-6h1.42c1.73,0,3.18-.47,3.18-1.78,0-1.09-.95-1.67-3-1.67a12.33,12.33,0,0,0-1.64.11Z"/><path d="M56.92,16.45C57,18.9,58.89,20,61.09,20a10.91,10.91,0,0,0,3.76-.62l.5,2.34a12.15,12.15,0,0,1-4.73.86c-4.4,0-7-2.7-7-6.85,0-3.75,2.29-7.29,6.63-7.29S66.11,12,66.11,15A9.17,9.17,0,0,1,66,16.45Zm6-2.4c0-1.25-.53-3.31-2.82-3.31-2.11,0-3,1.92-3.14,3.31Z"/><path d="M78.83,21.85a10,10,0,0,1-3.84.69c-4.23,0-7-2.72-7-6.93,0-4.06,2.79-7.21,7.55-7.21A9.22,9.22,0,0,1,78.86,9l-.61,2.59a5.62,5.62,0,0,0-2.59-.53,4,4,0,0,0-4.15,4.4,4,4,0,0,0,4.15,4.37,6.78,6.78,0,0,0,2.7-.53Z"/><path d="M84.79,8.71v5.62h.51l4.17-5.62h4.07l-5.4,5.95c1.86.28,3,1.73,3.92,3.9a38.69,38.69,0,0,0,1.53,3.71H90a20.67,20.67,0,0,1-1.25-2.9C88,17.5,87,16.61,85.24,16.61h-.45v5.66H81.37V8.71Z"/><path d="M98.72,8.71v4.87c0,2.14-.08,3.59-.2,5.48h.12c.72-1.58,1.11-2.59,1.83-4l3.32-6.34h4.15V22.27h-3.26V17.42c0-2.17.08-3.17.22-5.74h-.11c-.67,1.62-1.11,2.59-1.78,3.9-1,2-2.28,4.46-3.45,6.69h-4.1V8.71Z"/></svg>