<svg id="Слой_1" data-name="Слой 1" xmlns="http://www.w3.org/2000/svg" viewBox="0 0 158 32"><title>Безымянный-1</title><path d="M15.89,8.71V22.27H12.44V11.35H7.35V22.27H3.92V8.71Z"/><path d="M32.44,15.36c0,5-3.51,7.21-7,7.21-3.82,0-6.8-2.61-6.8-7s2.92-7.18,7-7.18S32.44,11.24,32.44,15.36Zm-10.22.14c0,2.62,1.31,4.59,3.37,4.59s3.31-1.89,3.31-4.65c0-2.11-.95-4.56-3.28-4.56S22.22,13.24,22.22,15.5Z"/><path d="M46.33,8.71V22.27H42.91V11.35h-3.7v2.92c0,3.54-.39,5.94-2,7.13a4.47,4.47,0,0,1-3.4,1.12l-.36-2.68a2.7,2.7,0,0,0,1.45-.64c1-.86,1.11-2.42,1.11-5V8.71Z"/><path d="M53.19,8.71v4.87c0,2.14-.09,3.59-.2,5.48h.11c.73-1.58,1.12-2.59,1.84-4l3.32-6.34h4.15V22.27H59.15V17.42c0-2.17.08-3.17.22-5.74h-.11c-.67,1.62-1.12,2.59-1.78,3.9-1,2-2.29,4.46-3.46,6.69H49.93V8.71Z"/><path d="M75,8.71v2.7H69.45V22.27H66V8.71Z"/><path d="M77.08,13.22c0-1.79,0-3.23-.11-4.51h3l.17,2.08h0A5.28,5.28,0,0,1,84.85,8.4c3.12,0,5.71,2.67,5.71,6.9,0,4.91-3.09,7.27-6.18,7.27a4.46,4.46,0,0,1-3.82-1.81h0v7H77.08Zm3.43,3.37a5.67,5.67,0,0,0,.08.94,3.14,3.14,0,0,0,3,2.4c2.17,0,3.45-1.81,3.45-4.49,0-2.39-1.17-4.34-3.37-4.34a3.24,3.24,0,0,0-3.09,2.53,4.32,4.32,0,0,0-.11.87Z"/><path d="M103.9,19a19.11,19.11,0,0,0,.22,3.26H101l-.25-1.51h-.08a5,5,0,0,1-4,1.81,4,4,0,0,1-4.26-4c0-3.4,3-5.16,8-5.13v-.22c0-.89-.36-2.37-2.76-2.37a7.23,7.23,0,0,0-3.65,1L93.4,9.6a9.72,9.72,0,0,1,4.9-1.2c4.35,0,5.6,2.76,5.6,5.74Zm-3.34-3.37c-2.42,0-4.73.47-4.73,2.53a1.8,1.8,0,0,0,2,1.95,2.82,2.82,0,0,0,2.7-1.86,2.43,2.43,0,0,0,.08-.76Z"/><path d="M116.85,2.61l0,5.87c3.9.34,7,2.76,7,7s-3.21,6.74-7,7l0,5.24h-3.23l.06-5.24c-3.9-.27-7-2.67-7-6.93,0-4.45,3.15-6.77,7-7.1l0-5.9Zm-3.17,8.16c-2.4.41-3.65,2.36-3.65,4.76a4.43,4.43,0,0,0,3.65,4.73Zm3.12,9.49c2.34-.42,3.59-2.34,3.59-4.79a4.4,4.4,0,0,0-3.59-4.7Z"/><path d="M129.8,8.71v4.87c0,2.14-.08,3.59-.19,5.48h.11c.72-1.58,1.11-2.59,1.84-4l3.31-6.34H139V22.27h-3.26V17.42c0-2.17.09-3.17.23-5.74h-.12c-.66,1.62-1.11,2.59-1.78,3.9-1,2-2.28,4.46-3.45,6.69h-4.09V8.71Z"/><path d="M153.81,22.27h-3.4V16.89h-1.28a2.67,2.67,0,0,0-2.09.89c-.86.76-1.2,2.2-1.64,3.37-.17.39-.33.7-.56,1.12h-3.65a7.66,7.66,0,0,0,.84-1.54c.5-1.16,1-2.95,2-3.89a3,3,0,0,1,1.64-.89v-.09c-1.64-.17-3.54-1.22-3.54-3.37a3.38,3.38,0,0,1,2.06-3.12A11.13,11.13,0,0,1,149,8.51a35.87,35.87,0,0,1,4.82.31Zm-3.4-11.48a14,14,0,0,0-1.7-.11c-1.5,0-3,.5-3,2s1.7,2,3,2c.81,0,1.26,0,1.7,0Z"/></svg>