<svg id="Слой_1" data-name="Слой 1" xmlns="http://www.w3.org/2000/svg" viewBox="0 0 112 32"><title>Безымянный-1</title><path d="M15.44,5a18.54,18.54,0,0,1-3,.55c-2.09.28-3.56.89-4.54,2.12a7.85,7.85,0,0,0-1.48,3.87H6.5a5,5,0,0,1,4.56-2.78c3.54,0,5.93,2.56,5.93,6.73,0,4.4-2.64,7.13-6.65,7.13-4.76,0-6.77-4.12-6.77-9,0-3.34.81-6,2.54-7.91a8.47,8.47,0,0,1,5.76-2.81,31.29,31.29,0,0,0,3.73-.64Zm-5.18,6.18a2.72,2.72,0,0,0-2.45,1.45,5.12,5.12,0,0,0-.7,2.75c0,2,.92,4.76,3.23,4.76s3.15-2.31,3.15-4.51C13.49,13.61,12.73,11.13,10.26,11.13Z"/><path d="M30.33,19a18,18,0,0,0,.23,3.26H27.47l-.25-1.51h-.09a5,5,0,0,1-4,1.81,4,4,0,0,1-4.26-4c0-3.4,3-5.16,8.05-5.13v-.22c0-.89-.36-2.37-2.76-2.37a7.26,7.26,0,0,0-3.65,1L19.84,9.6a9.66,9.66,0,0,1,4.9-1.2c4.34,0,5.59,2.76,5.59,5.74ZM27,15.64c-2.42,0-4.73.47-4.73,2.53a1.8,1.8,0,0,0,1.95,1.95,2.81,2.81,0,0,0,2.7-1.86A2.43,2.43,0,0,0,27,17.5Z"/><path d="M37.35,8.71v5.17h5.24V8.71H46V22.27H42.59V16.56H37.35v5.71H33.93V8.71Z"/><path d="M53.06,8.71v5.17H58.3V8.71h3.42V22.27H58.3V16.56H53.06v5.71H49.64V8.71Z"/><path d="M67.79,16.45C67.88,18.9,69.77,20,72,20a11,11,0,0,0,3.76-.62l.5,2.34a12.19,12.19,0,0,1-4.73.86c-4.4,0-7-2.7-7-6.85,0-3.75,2.28-7.29,6.63-7.29S77,12,77,15a8.1,8.1,0,0,1-.11,1.45Zm6-2.4c0-1.25-.52-3.31-2.81-3.31-2.11,0-3,1.92-3.15,3.31Z"/><path d="M79.74,13.22c0-1.79,0-3.23-.11-4.51h3l.17,2.08h0A5.28,5.28,0,0,1,87.51,8.4c3.12,0,5.71,2.67,5.71,6.9,0,4.91-3.09,7.27-6.18,7.27a4.46,4.46,0,0,1-3.82-1.81h0v7H79.74Zm3.43,3.37a5.67,5.67,0,0,0,.08.94,3.14,3.14,0,0,0,3,2.4c2.17,0,3.45-1.81,3.45-4.49,0-2.39-1.17-4.34-3.37-4.34a3.24,3.24,0,0,0-3.09,2.53,4.32,4.32,0,0,0-.11.87Z"/><path d="M106.56,19a19.11,19.11,0,0,0,.22,3.26h-3.09l-.25-1.51h-.08a5,5,0,0,1-4,1.81,4,4,0,0,1-4.26-4c0-3.4,3-5.16,8-5.13v-.22c0-.89-.37-2.37-2.76-2.37a7.23,7.23,0,0,0-3.65,1L96.06,9.6A9.72,9.72,0,0,1,101,8.4c4.35,0,5.6,2.76,5.6,5.74Zm-3.34-3.37c-2.42,0-4.73.47-4.73,2.53a1.8,1.8,0,0,0,2,1.95,2.82,2.82,0,0,0,2.7-1.86,2.43,2.43,0,0,0,.08-.76Z"/></svg>